<svg width="56" height="56" viewBox="0 0 56 56" fill="none" xmlns="http://www.w3.org/2000/svg">
<path d="M41.52 27.04C39.28 27.04 37.2 27.84 35.6 29.28C37.52 23.2 41.68 18.24 48.08 12.8L47.28 12C38.32 19.2 32.88 27.04 32.88 35.68C32.88 40.48 36.72 44.32 41.52 44.32C46.32 44.32 50.16 40.48 50.16 35.68C50.16 30.88 46.32 27.04 41.52 27.04ZM14.64 27.04C12.4 27.04 10.32 27.84 8.88 29.28C10.64 23.2 14.8 18.24 21.2 12.8L20.4 12C11.44 19.2 6 27.04 6 35.68C6 40.48 9.84 44.32 14.64 44.32C19.44 44.32 23.28 40.48 23.28 35.68C23.28 30.88 19.44 27.04 14.64 27.04Z" fill="#151B26"/>
</svg>
